<?xml version="1.0" standalone="no"?>
<!DOCTYPE svg PUBLIC "-//W3C//DTD SVG 20010904//EN"
 "http://www.w3.org/TR/2001/REC-SVG-20010904/DTD/svg10.dtd">
<svg version="1.0" xmlns="http://www.w3.org/2000/svg"
 width="1024.000000pt" height="1024.000000pt" viewBox="0 0 1024.000000 1024.000000"
 preserveAspectRatio="xMidYMid meet">
<metadata>
Created by potrace 1.11, written by Peter Selinger 2001-2013
</metadata>
<g transform="translate(0.000000,1024.000000) scale(0.100000,-0.100000)"
fill="#000000" stroke="none">
<path d="M2185 9440 c-4 -6 -10 -8 -15 -5 -9 6 -55 -19 -75 -40 -34 -36 -45
-98 -26 -147 8 -20 277 -292 904 -913 81 -80 147 -149 148 -153 2 -12 7 -335
13 -761 2 -227 6 -415 8 -416 3 -3 318 -155 673 -324 83 -39 175 -84 205 -99
l55 -28 -3 -44 c-3 -54 -9 -101 -14 -104 -2 -1 -25 -8 -53 -14 -27 -7 -57 -14
-65 -16 -8 -3 -33 -9 -55 -14 -22 -6 -76 -20 -120 -32 -44 -12 -223 -59 -398
-106 l-319 -85 -896 0 c-719 0 -901 -3 -926 -13 -104 -44 -115 -181 -19 -243
26 -17 79 -18 948 -19 l920 -2 305 80 c168 45 370 98 450 120 241 64 232 64
237 23 1 -16 8 -58 14 -92 13 -71 10 -78 -51 -128 -131 -108 -164 -137 -260
-234 -58 -58 -130 -135 -160 -170 -30 -35 -60 -69 -65 -75 -75 -82 -503 -659
-824 -1111 -19 -27 -46 -61 -59 -75 -13 -14 -28 -34 -32 -46 -5 -12 -51 -84
-103 -160 -158 -233 -237 -373 -354 -633 -54 -119 -106 -301 -119 -411 -3 -25
-7 -58 -10 -75 -5 -38 -5 -175 0 -235 5 -60 13 -101 37 -190 40 -153 80 -222
195 -337 159 -159 368 -252 674 -299 128 -19 416 11 537 56 66 25 179 81 260
130 l62 38 6 -26 c8 -41 14 -73 21 -117 3 -22 6 -43 7 -47 1 -3 -43 -75 -99
-160 -55 -84 -132 -200 -169 -258 -38 -58 -152 -231 -253 -385 -102 -154 -193
-297 -203 -319 -39 -87 17 -175 121 -192 8 -2 34 6 57 16 38 17 55 39 166 207
217 330 334 509 444 676 58 89 133 203 166 252 33 50 60 95 60 100 0 11 -10
77 -17 115 -3 14 -16 89 -30 166 l-25 142 76 78 c41 44 122 138 180 209 58 72
108 131 112 132 3 2 22 -25 41 -59 51 -90 139 -206 198 -260 96 -90 295 -204
453 -259 94 -34 284 -34 384 -1 208 70 443 224 546 358 30 39 95 139 119 181
13 24 26 43 29 43 3 0 20 -20 38 -43 18 -23 44 -55 57 -72 14 -16 29 -34 33
-40 53 -68 151 -180 191 -217 53 -50 52 -46 37 -125 -3 -16 -8 -44 -10 -63 -3
-19 -8 -44 -12 -55 -4 -11 -8 -29 -9 -40 -1 -11 -9 -59 -19 -106 l-17 -85 134
-205 c74 -112 179 -271 233 -354 54 -82 143 -217 196 -300 54 -82 102 -154
106 -160 5 -5 24 -35 43 -65 19 -30 38 -57 42 -58 5 -2 8 -10 8 -17 0 -20 55
-68 95 -82 88 -30 184 52 171 147 -5 41 -16 58 -284 465 -80 121 -179 272
-220 335 -42 63 -110 168 -153 232 -56 84 -77 124 -73 140 2 13 7 37 9 53 3
17 9 46 12 65 4 19 6 38 5 43 -4 14 17 6 87 -33 38 -22 87 -49 107 -61 52 -29
171 -75 219 -84 22 -5 47 -10 55 -11 147 -30 369 -35 460 -9 8 2 26 6 40 9 14
3 34 7 45 10 11 2 41 9 67 15 171 39 336 132 466 261 92 91 123 136 157 230
56 155 70 240 70 415 -1 136 -8 194 -38 325 -49 208 -207 542 -384 810 -158
239 -537 773 -720 1015 -5 6 -62 82 -128 170 -66 88 -124 165 -130 171 -5 7
-19 24 -30 40 -11 16 -47 60 -80 99 -159 187 -299 327 -440 440 -28 22 -62 51
-77 65 l-26 25 14 65 c7 36 14 82 14 103 0 20 5 37 11 37 5 0 227 -60 492
-134 l482 -133 920 1 c1028 1 959 -4 1002 73 37 66 12 148 -57 184 -33 18 -76
19 -935 19 l-901 0 -89 25 c-50 14 -106 30 -125 35 -19 5 -84 24 -145 41 -60
17 -117 33 -125 35 -8 2 -49 13 -90 24 -41 12 -97 27 -125 35 -27 7 -84 23
-125 34 -41 12 -82 24 -91 26 -77 17 -99 29 -100 54 0 14 -2 42 -5 61 l-4 35
387 190 c213 105 423 208 467 230 l81 40 1 65 c3 119 17 1054 16 1087 0 29 50
80 514 540 283 279 521 518 530 531 8 12 16 42 18 66 5 53 -26 106 -77 133
-36 18 -77 26 -77 14 0 -5 -12 -11 -27 -14 -20 -4 -195 -171 -591 -564 l-564
-558 -4 -265 c-2 -146 -6 -399 -8 -563 -2 -164 -6 -300 -8 -301 -1 -1 -55 -28
-118 -58 -63 -31 -222 -108 -353 -173 -131 -65 -240 -116 -241 -114 -2 2 -19
42 -37 89 -32 85 -82 175 -122 218 l-20 22 24 27 c13 15 31 34 39 43 52 50
119 200 136 300 10 57 11 252 2 305 -14 85 -20 102 -53 172 -106 216 -346 412
-600 489 -33 10 -63 20 -67 24 -5 3 24 39 62 79 39 40 77 85 84 99 18 35 13
102 -10 137 -35 53 -120 73 -179 43 -11 -6 -51 -44 -90 -84 -38 -40 -103 -106
-142 -147 l-73 -74 -137 0 -138 0 -150 154 c-119 123 -157 156 -185 162 -87
18 -159 -32 -168 -118 -6 -61 7 -84 101 -180 l67 -68 -92 -33 c-237 -82 -424
-223 -542 -408 -85 -134 -106 -220 -102 -417 5 -203 48 -327 156 -447 l48 -53
-33 -45 c-41 -55 -109 -190 -125 -246 l-12 -41 -272 129 c-149 72 -312 149
-362 173 l-91 44 -3 183 c-1 101 -3 287 -5 413 -2 127 -4 297 -5 378 l-2 148
-525 522 c-610 607 -610 607 -634 607 -11 0 -19 5 -19 10 0 13 -27 13 -35 0z
m3395 -1154 c14 -3 39 -8 55 -12 57 -11 219 -66 269 -91 130 -65 256 -185 312
-295 30 -59 42 -152 32 -253 -7 -86 -11 -103 -36 -157 -35 -77 -59 -99 -365
-331 -31 -23 -44 -39 -35 -42 7 -3 63 -22 125 -43 61 -21 127 -49 146 -62 74
-51 146 -208 176 -385 5 -33 13 -76 17 -95 3 -19 8 -120 10 -225 3 -156 0
-205 -15 -274 -40 -180 -16 -232 185 -396 135 -111 230 -203 345 -335 82 -94
229 -276 229 -285 0 -3 -142 -5 -315 -5 l-315 0 -21 41 c-64 127 -202 211
-344 211 -347 0 -523 -416 -281 -664 113 -116 292 -149 437 -81 82 38 130 80
175 154 20 32 40 60 43 60 3 1 192 2 418 3 l412 1 38 -50 c188 -252 621 -868
713 -1014 88 -142 260 -498 260 -540 0 -3 -182 -6 -405 -6 l-404 0 -225 221
-225 221 14 47 c9 28 13 79 12 129 -3 69 -8 93 -35 149 -122 249 -450 298
-642 95 -34 -36 -86 -136 -95 -182 -16 -85 -5 -169 33 -248 68 -145 209 -229
368 -222 38 2 88 10 111 18 l42 16 263 -260 263 -259 45 -1 c25 0 247 0 493 0
l448 0 -2 -112 c-1 -62 -8 -131 -15 -155 -7 -23 -12 -44 -11 -45 0 -1 -8 -27
-18 -57 -52 -160 -240 -295 -495 -356 -153 -36 -342 -38 -460 -4 -16 5 -30 7
-30 5 0 -10 -148 59 -236 110 -54 32 -108 63 -119 69 -126 70 -235 174 -421
401 -117 143 -356 395 -375 395 -3 0 -31 -51 -63 -112 -174 -338 -241 -435
-351 -513 -115 -82 -276 -157 -357 -168 -35 -4 -38 -3 -39 22 0 14 -1 819 -2
1789 l-2 1763 45 21 c62 30 139 111 174 183 25 50 30 75 32 147 6 166 -66 290
-210 363 -71 36 -86 40 -162 42 -103 2 -174 -20 -251 -78 -185 -139 -206 -414
-44 -579 31 -31 75 -65 98 -76 38 -17 43 -23 43 -54 4 -144 1 -3442 -3 -3446
-12 -12 -163 93 -212 147 -63 69 -150 215 -260 431 -33 65 -63 118 -66 118
-19 0 -275 -269 -378 -398 -225 -279 -286 -330 -631 -520 -136 -75 -403 -110
-560 -74 -25 6 -56 13 -70 16 -168 33 -297 100 -403 209 -68 71 -79 90 -107
188 -46 165 -46 325 1 517 28 118 54 182 152 383 72 145 231 412 273 456 8 8
43 -21 140 -118 l129 -129 1 -170 1 -170 -51 -29 c-124 -70 -193 -183 -201
-323 -8 -158 78 -302 220 -369 227 -107 486 15 548 257 42 166 -38 350 -188
435 l-53 30 0 226 0 225 -186 187 c-102 102 -186 190 -186 194 0 4 30 49 67
100 36 51 82 115 101 142 49 69 271 374 296 406 12 15 30 39 41 54 24 33 185
248 191 254 3 3 126 -100 154 -129 8 -8 162 -144 188 -166 22 -18 22 -22 22
-240 l0 -222 -52 -30 c-94 -54 -155 -130 -184 -229 -90 -310 212 -588 516
-474 224 84 319 369 190 571 -38 59 -94 112 -150 140 -22 11 -40 24 -41 28 0
4 -1 131 -2 283 -2 230 -4 278 -17 290 -8 8 -96 86 -195 174 -99 88 -195 174
-214 191 l-34 32 40 49 c58 67 170 175 288 273 200 167 239 231 213 352 -57
272 -33 624 61 868 25 64 83 153 114 173 25 16 171 70 235 87 23 6 42 15 42
19 0 5 -33 33 -72 62 -40 30 -75 56 -78 59 -3 4 -41 34 -86 67 -135 102 -185
177 -202 302 -17 119 6 280 43 311 8 7 15 19 15 27 0 8 39 54 88 102 71 71
104 95 182 134 113 56 267 105 359 113 36 4 67 8 69 9 6 5 418 -3 442 -9z
m-349 -1941 c53 -17 80 -117 45 -170 -19 -28 -69 -55 -95 -50 -9 2 -24 4 -34
4 -27 1 -73 54 -81 92 -11 55 32 118 89 131 21 5 45 3 76 -7z m864 -1389 c83
-55 60 -184 -37 -205 -62 -14 -132 35 -142 99 -5 34 28 96 61 114 34 17 85 14
118 -8z m-1868 -931 c62 -66 40 -161 -44 -190 -32 -11 -43 -11 -73 1 -80 33
-100 123 -42 188 40 44 119 45 159 1z m2479 -226 c13 -12 28 -37 35 -56 22
-68 -46 -151 -119 -145 -115 10 -144 164 -41 220 33 18 96 8 125 -19z m-3466
-789 c30 -16 52 -49 57 -89 5 -34 1 -47 -21 -75 -36 -47 -82 -62 -133 -41 -22
9 -47 28 -56 44 -59 101 49 214 153 161z"/>
</g>
</svg>
