<svg version="1" xmlns="http://www.w3.org/2000/svg" width="1365.333" height="1365.333" viewBox="0 0 1024.000000 1024.000000"><path d="M191.4 4.6c-10.5 3-17.4 8.7-22.1 18.3-2.3 4.6-2.7 6.8-2.7 13.6 0 10.7 2.8 16.5 13.2 27.3 7.8 8.1 66.1 67.6 87 88.8L278 164l.1 10.8c0 10.7.6 51.1 1.3 94.5.3 21 .4 22.9 2.2 24.3 1 .8 6.6 4.5 12.4 8.4 5.8 3.8 11 7.4 11.7 7.9.7.6 1.5 1.1 1.8 1.1.5 0 6.4 3.9 7.5 5 .3.3 1.3.9 2.2 1.5.9.5 9.1 5.9 18.1 11.9l16.5 11-3.7 2.6c-2 1.4-9 6.4-15.6 11s-12.1 8.7-12.3 9.2c-.2.4-.8.8-1.3.8s-3.7 2-7.2 4.5c-3.4 2.4-7.7 5.4-9.5 6.7-1.8 1.3-3.9 2.7-4.5 3.3-.7.5-3.7 2.7-6.7 4.7-3 2.1-6.6 4.6-8 5.5-1.4 1-8.1 5.7-15 10.5s-13 9.1-13.5 9.5c-.6.4-3.1 2.2-5.5 3.9l-4.5 3.1h-89c-49 0-91.1.3-93.6.7-15.7 2.1-27.2 16.2-27.1 33.3 0 3.9.4 7.8.8 8.5.5.7.9 1.9 1 2.6.4 2.6 5.5 10.1 8.9 13.1 4.2 3.7 9.7 6.6 14.4 7.6 1.9.4 48.6.7 103.8.8h100.4l5.7-3.9c3.1-2.1 10.6-7.4 16.7-11.6 6-4.3 11.7-8.2 12.5-8.8.8-.6 17.6-12.3 37.3-26.2 19.7-13.8 36-24.9 36.2-24.7.2.3-3.5 3.6-8.2 7.4-15.8 12.9-26.7 23.3-38.8 37-3.8 4.4-7.2 8.2-7.5 8.5-1.7 1.6-15 18.3-23.1 29-5.2 6.9-9.8 12.9-10.2 13.5-3.6 4.6-44.7 60.9-50.5 69.2-.7 1-4.3 6.1-8 11.3-3.7 5.2-8.8 12.4-11.2 16-2.5 3.6-4.7 6.7-5 7-1 .9-18.7 27.5-24 36-5.6 8.9-18.5 34.3-25 49-3.7 8.4-8.7 23-9.6 28-.3 1.4-.8 3.4-1.1 4.5-.4 1.1-.7 2.7-.8 3.5-.1.8-.5 3.4-.9 5.7-2.3 14.4-2.8 25.4-1.7 37.8.6 6 1.3 12.1 1.7 13.5.3 1.4.7 3.6.9 5 .2 1.4 2 7.2 4 12.9 3.4 9.7 7.7 17.7 12.1 22.7 7 7.8 9.6 10.5 14.9 15 3.3 2.8 9.4 7.1 13.5 9.6 6.4 3.8 10.8 5.8 23.5 10.8 2 .8 12.8 3.7 16.8 4.6 9.5 2 12.7 2.6 16.2 3.1 6.1.9 25.2.9 32.5 0 10.5-1.3 11.4-1.4 17.6-2.8 3.2-.7 6.1-1.3 6.4-1.4 3.1-.6 14.4-5.1 19.1-7.6 1.4-.7 2 0 3.1 3.6l1.5 4.4-6.4 9.1c-3.4 5-6.3 9.5-6.3 10 0 .4-.4 1-.8 1.2-.4.2-5.6 7.3-11.4 15.8-5.8 8.5-12.2 17.7-14.2 20.5-2 2.7-4 6-4.6 7.3-.5 1.2-1.3 2.2-1.8 2.2s-1.4 1-2.1 2.3c-1.3 2.5-3.2 5.5-8 12.3-22 31.8-22.7 32.9-23.6 41.6-1.6 15.5 8.3 29.4 24.4 34.3 5.2 1.6 15.6.7 21.6-1.8 7.3-3.1 12.4-8 20-19.3 3.3-4.9 6.4-9.4 6.8-9.9 1-1.3 21.6-31.2 37.2-54.1 6.6-9.7 12.5-18.1 13-18.8.6-.6 3.2-4.5 6-8.6 2.7-4.1 5.2-7.7 5.5-8 .3-.3 4.3-6 8.8-12.8l8.3-12.2-2.6-8.8c-1.4-4.8-3.7-12.3-5-16.7-4.4-14.5-7.7-26-8.2-28.5-.3-1.4-.9-3-1.4-3.5-.4-.6 1-3 3.3-5.5 2.2-2.5 5.4-6.1 7.2-8 1.7-1.9 6.6-7.9 10.9-13.3 4.2-5.4 7.7-9.4 7.7-8.8 0 2.4 13 20 20 27.1 8.6 8.8 11.1 10.7 23.5 17.9 12.2 7.2 30.3 15.4 37 16.7 1.1.2 3.1.6 4.5.9 3.2.7 21.6.7 25.5 0 7-1.3 14.7-4 25.3-9 6.2-3 11.5-5.4 11.9-5.4.3.1.9-.3 1.2-.8.3-.5 2.9-2.2 5.6-3.8 2.8-1.5 5.2-3.1 5.5-3.4.3-.3 2.5-1.9 4.8-3.6 8.7-5.9 19.5-18.2 27.9-31.8 3.4-5.4 3-5.5 9.3 2.3 10.7 13.4 18.1 22 22.3 26 1.8 1.7 1.8 2-.8 9.2-1.5 4-2.9 8.2-3.1 9.3-.2 1.1-.8 3.1-1.3 4.5s-1.9 5.9-3.1 10c-1.2 4.1-2.4 8.2-2.7 9-.3.8-.7 1.9-.9 2.5-.1.5-1.4 4.6-2.8 9-2.4 7.5-2.4 8.1-.9 10.5 1.8 2.8 56.3 81 57.6 82.5.4.5 8.2 11.7 17.2 24.7 9.1 13 18.4 25.2 20.7 27.2 7.3 6.3 19 9.1 29.3 7.1 8.8-1.7 18.3-9.4 22.5-18 1.9-4 2.4-6.6 2.4-13 0-9.1-1.5-13-10-24.9-2.7-3.7-5.6-7.9-6.4-9.2-.8-1.2-5.5-8-10.5-15.1-4.9-7-11.2-15.9-13.9-19.8-2.7-3.8-11-15.8-18.5-26.5-7.4-10.7-13.8-19.7-14.1-20-.3-.3-1.6-2.2-2.8-4.3-2.1-3.6-2.4-5.9-1.1-8.2.4-.6.9-2.2 1.3-3.8l.6-2.7 4.8 2.4c5.1 2.5 15.4 6.2 19.6 7 17.3 3.2 21.9 3.8 33.1 4.1 12.2.3 21.6-.8 35.4-4.1 5.8-1.4 11.3-2.7 12.1-2.9 7.1-1.6 25.9-10.3 34-15.8 8.3-5.8 19.5-16.5 25.3-24.5 6-8.1 12-23.3 14.1-35.7.3-1.7 1-5.2 1.5-8 2-10.7 1-34.5-2.2-51.7-.7-3.5-4.6-17.9-5.4-19.8-.3-.8-.7-1.7-.7-2-.1-.6-2.4-6.6-3.6-9.5-4.6-11-20.2-42.6-23-46.5-1.1-1.5-2-3.1-2-3.4 0-.6-19-29.4-24.7-37.4-1.5-2.2-3.4-4.8-4-5.8-2.5-3.7-39.9-56-45.6-63.6-3.1-4.3-5.7-8-5.7-8.3 0-.3-1.1-1.8-2.4-3.3-1.4-1.5-3.5-4.3-4.9-6.2-1.3-2-3.1-4.4-3.9-5.5-.9-1.1-6.5-8.5-12.3-16.4-5.9-7.9-11.3-15.1-12.1-16-.7-.9-4.4-5.5-8.1-10.2-6.3-7.9-14.9-18.1-19.8-23.3-6.8-7.4-6.7-7.7 1.2-2.4 2.3 1.5 4.4 2.8 4.6 2.8.3 0 6.4 3.6 13.7 8 7.3 4.4 13.4 8 13.5 8 .2 0 4 2.2 8.5 5 4.5 2.7 8.6 5 9.1 5s.9.4.9 1c0 .5.5 1 1 1 .6 0 2.9 1.2 5.2 2.6l4.2 2.7 102-.1c92.7 0 102.5-.2 106.6-1.7 2.5-.9 5.3-1.9 6.3-2.2.9-.3 1.7-.9 1.7-1.4 0-.5.5-.9 1.2-.9.6 0 2.7-1.7 4.6-3.8 8.8-9.4 11.3-23.7 6.1-35-4.1-9.1-13.2-16.6-22.5-18.6-1.8-.4-44.8-.7-95.5-.7l-92.4-.1-12.4-7.5c-6.8-4.1-13.8-8.3-15.5-9.3-3.3-1.8-25.1-14.8-53.6-31.8-18.3-11-23-13.7-26.8-15.7-2.2-1.2-2.2-1.2 1.5-4.1 2.1-1.5 8.1-6.4 13.3-10.7 11.4-9.4 12-10 19-15.6 3-2.5 6-4.9 6.5-5.5.6-.6 4.4-3.8 8.5-7.1s7.7-6.2 8-6.5c.3-.3 3-2.5 6-5s6.1-5 6.8-5.7c.7-.7 2.2-1.9 3.4-2.7 1.6-1.2 2.1-2.7 2.4-8.3.4-7.8 1.5-94.9 1.4-109.3v-9.5l52.9-52.9c29.1-29.2 53.7-54.4 54.7-56 5.9-9.7 6.9-22.6 2.5-32.1-3.9-8.2-15-17.5-20.9-17.5-1.2 0-2.3-.4-2.6-.8-.7-1.1-9.5-.7-14.5.7-2.4.7-6 2.3-8.1 3.6-2 1.3-31.7 30.4-65.8 64.6C695.4 122 682 136 682 138c-.4 18.9-1.2 66.3-1.5 87-.2 14.6-.4 27.9-.4 29.5-.1 2.3-1.1 3.8-3.9 6-2.1 1.7-6.1 4.9-8.8 7.2-2.7 2.3-9.2 7.7-14.4 12-5.2 4.3-9.6 8.1-9.8 8.5-.7 1.5-3.1.8-3.7-1.1-.3-1-2.4-4.7-4.5-8.1l-4-6.1 3.9-4.7c4.8-5.9 8.5-12.2 11.7-20.3 2.4-6.3 2.8-7.7 4.4-17.4 2-11.9.4-37.6-2.8-45-6.9-15.8-12.1-23.5-24.2-35.5-12.6-12.7-23.9-19.7-45-28.1-3.7-1.5-4.1-1.6-6.5-1.8-.8 0-1.5-.4-1.5-.9 0-.4 3.4-4.2 7.5-8.4 9.5-9.9 11.5-13.4 11.7-20.8.1-5.2-.9-8.9-3.4-12.6-5.9-8.7-18.4-12.3-27.3-7.8-3.9 2-7.3 5.3-32.7 31.6-9.6 10-10.6 10.8-14.1 10.8-3.6 0-4.6-.8-17-13.7-22.1-22.9-26.3-26.9-29.9-28.6-4.3-2-12.3-2.4-16.1-.9-1.6.7-3.2 1.2-3.6 1.2-.4 0-2.3 1.7-4.3 3.7-7 7.2-8.8 16.2-4.9 24.6 1 2.3 5.5 8 10 12.6l8 8.4-7.2 2.4c-10.3 3.4-26.1 11.5-34 17.4-18.5 13.9-33.1 33.9-37.6 51.4-4.9 19.5-2.6 47.7 5.2 63 2.3 4.6 9.3 15.1 11.8 17.8 1.6 1.8 1.5 2.2-2.4 7.8-2.2 3.2-4.3 5.9-4.6 5.8-.3 0-10-6.4-21.6-14.2l-21-14.2-.1-11c-.4-33.6-1.6-105.3-1.7-107.2-.2-2.1-27.2-30.1-99.7-103.4C217.3 9.9 211.3 5 206 5c-1.1 0-2-.3-2-.8 0-1.1-8.2-.9-12.6.4zm229.7 235.1c1.3 1.6 1.2 1.7-.3.4-1-.7-1.8-1.5-1.8-1.7 0-.8.8-.3 2.1 1.3zm3 285c1.3 1.6 1.2 1.7-.3.4-1.7-1.3-2.2-2.1-1.4-2.1.2 0 1 .8 1.7 1.7zM1022 990.7c0 .5-4.7 5.7-10.5 11.8l-10.4 11-23.1.1h-23.2l-3.9 4.4c-2.1 2.4-3.9 4.7-3.9 5.1 0 .5 17.3.8 38.5.8h38.5V1007c0-10.7-.4-17-1-17-.5 0-1 .3-1 .7z"/></svg>